<mxfile host="app.diagrams.net" modified="2024-02-07T03:06:10.209Z" agent="Mozilla/5.0 (Windows NT 10.0; Win64; x64) AppleWebKit/537.36 (KHTML, like Gecko) Chrome/121.0.0.0 Safari/537.36" etag="DrKyEjMSNw_t-wuh_b1d" version="23.1.1" type="github">
  <diagram name="Page-1" id="UNe5jfXNL0Ssos9zsnio">
    <mxGraphModel dx="1434" dy="772" grid="1" gridSize="10" guides="1" tooltips="1" connect="1" arrows="1" fold="1" page="1" pageScale="1" pageWidth="850" pageHeight="1100" math="0" shadow="0">
      <root>
        <mxCell id="0" />
        <mxCell id="1" parent="0" />
        <mxCell id="7LKXLnG-r8gDZke37iCC-2" value="" style="rounded=0;whiteSpace=wrap;html=1;" vertex="1" parent="1">
          <mxGeometry x="265" y="170" width="320" height="510" as="geometry" />
        </mxCell>
        <mxCell id="7LKXLnG-r8gDZke37iCC-4" value="Perpus Digital" style="text;html=1;strokeColor=none;fillColor=none;align=center;verticalAlign=middle;whiteSpace=wrap;rounded=0;" vertex="1" parent="1">
          <mxGeometry x="370" y="180" width="115" height="30" as="geometry" />
        </mxCell>
        <mxCell id="7LKXLnG-r8gDZke37iCC-6" value="" style="ellipse;whiteSpace=wrap;html=1;" vertex="1" parent="1">
          <mxGeometry x="356.25" y="230" width="150" height="80" as="geometry" />
        </mxCell>
        <mxCell id="7LKXLnG-r8gDZke37iCC-7" value="Form&amp;nbsp; Pengunjung" style="text;strokeColor=none;align=center;fillColor=none;html=1;verticalAlign=middle;whiteSpace=wrap;rounded=0;" vertex="1" parent="1">
          <mxGeometry x="380" y="255" width="102.5" height="30" as="geometry" />
        </mxCell>
        <mxCell id="7LKXLnG-r8gDZke37iCC-8" value="" style="ellipse;whiteSpace=wrap;html=1;" vertex="1" parent="1">
          <mxGeometry x="356.25" y="330" width="150" height="80" as="geometry" />
        </mxCell>
        <mxCell id="7LKXLnG-r8gDZke37iCC-9" value="Pencarian Buku" style="text;strokeColor=none;align=center;fillColor=none;html=1;verticalAlign=middle;whiteSpace=wrap;rounded=0;" vertex="1" parent="1">
          <mxGeometry x="380" y="355" width="95" height="30" as="geometry" />
        </mxCell>
        <mxCell id="7LKXLnG-r8gDZke37iCC-10" value="" style="ellipse;whiteSpace=wrap;html=1;" vertex="1" parent="1">
          <mxGeometry x="356.25" y="440" width="150" height="80" as="geometry" />
        </mxCell>
        <mxCell id="7LKXLnG-r8gDZke37iCC-13" value="" style="ellipse;whiteSpace=wrap;html=1;" vertex="1" parent="1">
          <mxGeometry x="356.25" y="540" width="150" height="80" as="geometry" />
        </mxCell>
        <mxCell id="7LKXLnG-r8gDZke37iCC-16" value="Detail Buku" style="text;strokeColor=none;align=center;fillColor=none;html=1;verticalAlign=middle;whiteSpace=wrap;rounded=0;" vertex="1" parent="1">
          <mxGeometry x="378" y="465" width="95" height="30" as="geometry" />
        </mxCell>
        <mxCell id="7LKXLnG-r8gDZke37iCC-17" value="Laporan Statistik" style="text;strokeColor=none;align=center;fillColor=none;html=1;verticalAlign=middle;whiteSpace=wrap;rounded=0;" vertex="1" parent="1">
          <mxGeometry x="383.75" y="565" width="95" height="30" as="geometry" />
        </mxCell>
        <mxCell id="7LKXLnG-r8gDZke37iCC-19" value="Pengunjung" style="shape=umlActor;verticalLabelPosition=bottom;verticalAlign=top;html=1;outlineConnect=0;" vertex="1" parent="1">
          <mxGeometry x="10" y="310" width="110" height="200" as="geometry" />
        </mxCell>
        <mxCell id="7LKXLnG-r8gDZke37iCC-25" value="Pustakawan" style="shape=umlActor;verticalLabelPosition=bottom;verticalAlign=top;html=1;outlineConnect=0;" vertex="1" parent="1">
          <mxGeometry x="740" y="320" width="110" height="200" as="geometry" />
        </mxCell>
        <mxCell id="7LKXLnG-r8gDZke37iCC-35" value="" style="endArrow=none;html=1;rounded=0;" edge="1" parent="1" target="7LKXLnG-r8gDZke37iCC-6">
          <mxGeometry width="50" height="50" relative="1" as="geometry">
            <mxPoint x="120" y="370" as="sourcePoint" />
            <mxPoint x="180" y="260" as="targetPoint" />
            <Array as="points">
              <mxPoint x="150" y="270" />
            </Array>
          </mxGeometry>
        </mxCell>
        <mxCell id="7LKXLnG-r8gDZke37iCC-36" value="" style="endArrow=none;html=1;rounded=0;" edge="1" parent="1" target="7LKXLnG-r8gDZke37iCC-8">
          <mxGeometry width="50" height="50" relative="1" as="geometry">
            <mxPoint x="130" y="380" as="sourcePoint" />
            <mxPoint x="180" y="370" as="targetPoint" />
          </mxGeometry>
        </mxCell>
        <mxCell id="7LKXLnG-r8gDZke37iCC-37" value="" style="endArrow=none;html=1;rounded=0;" edge="1" parent="1" source="7LKXLnG-r8gDZke37iCC-19">
          <mxGeometry width="50" height="50" relative="1" as="geometry">
            <mxPoint x="130.25" y="484" as="sourcePoint" />
            <mxPoint x="356.25" y="476" as="targetPoint" />
            <Array as="points">
              <mxPoint x="250" y="460" />
            </Array>
          </mxGeometry>
        </mxCell>
        <mxCell id="7LKXLnG-r8gDZke37iCC-38" value="" style="endArrow=none;html=1;rounded=0;" edge="1" parent="1">
          <mxGeometry width="50" height="50" relative="1" as="geometry">
            <mxPoint x="510" y="270" as="sourcePoint" />
            <mxPoint x="746" y="347" as="targetPoint" />
            <Array as="points">
              <mxPoint x="640" y="270" />
            </Array>
          </mxGeometry>
        </mxCell>
        <mxCell id="7LKXLnG-r8gDZke37iCC-39" value="" style="endArrow=none;html=1;rounded=0;exitX=1;exitY=0.5;exitDx=0;exitDy=0;" edge="1" parent="1" source="7LKXLnG-r8gDZke37iCC-8">
          <mxGeometry width="50" height="50" relative="1" as="geometry">
            <mxPoint x="510" y="410" as="sourcePoint" />
            <mxPoint x="736" y="402" as="targetPoint" />
          </mxGeometry>
        </mxCell>
        <mxCell id="7LKXLnG-r8gDZke37iCC-41" value="" style="endArrow=none;html=1;rounded=0;exitX=1;exitY=0.5;exitDx=0;exitDy=0;" edge="1" parent="1" source="7LKXLnG-r8gDZke37iCC-10">
          <mxGeometry width="50" height="50" relative="1" as="geometry">
            <mxPoint x="506.25" y="428" as="sourcePoint" />
            <mxPoint x="732.25" y="420" as="targetPoint" />
          </mxGeometry>
        </mxCell>
        <mxCell id="7LKXLnG-r8gDZke37iCC-42" value="" style="endArrow=none;html=1;rounded=0;exitX=1;exitY=0.5;exitDx=0;exitDy=0;" edge="1" parent="1" source="7LKXLnG-r8gDZke37iCC-13">
          <mxGeometry width="50" height="50" relative="1" as="geometry">
            <mxPoint x="506.25" y="448" as="sourcePoint" />
            <mxPoint x="732.25" y="440" as="targetPoint" />
          </mxGeometry>
        </mxCell>
      </root>
    </mxGraphModel>
  </diagram>
</mxfile>
